# xmcd
#
# Track frame offsets: 
#        150
#        17125
#        37153
#        66895
#        84743
#        95548
#        116943
#        131290
#        146704
#        167858
#        182199
#
# Disc length: 2560 seconds
#
# Revision: 1
# Processed by: cddbd v1.5.2PL0 Copyright (c) Steve Scherf et al.
# Submitted via: ExactAudioCopyFreeDBPlugin 1.0
#
DISCID=a209fe0b
DTITLE=Various Artist - All That Blues - Disc 4
DYEAR=2003
DGENRE=Blues
TTITLE0=Jenny - Why Should I Care
TTITLE1=Astrud Dearie - Summer Time
TTITLE2=Clarefina - Over The Rainbow
TTITLE3=Stephan Franke - Making Whoopee
TTITLE4=Lisa Fygi - I See Your Face Before Me
TTITLE5=Flona Amos - The Very Thought Of You
TTITLE6=Zora Becker - Can't Take My Eyes Off You
TTITLE7=Jason Friendman - La Vi Enrose
TTITLE8=Miwa Joe - Love Is A Many-spledored Thing
TTITLE9=Shiry Burton - Misty
TTITLE10=Jeff Flick - What A Wonderful World
EXTD=
EXTT0=
EXTT1=
EXTT2=
EXTT3=
EXTT4=
EXTT5=
EXTT6=
EXTT7=
EXTT8=
EXTT9=
EXTT10=
PLAYORDER=
